<?xml version="1.0" standalone="no"?>
<!DOCTYPE svg PUBLIC "-//W3C//DTD SVG 20010904//EN"
 "http://www.w3.org/TR/2001/REC-SVG-20010904/DTD/svg10.dtd">
<svg version="1.0" xmlns="http://www.w3.org/2000/svg"
 width="1280.000000pt" height="660.000000pt" viewBox="0 0 1280.000000 660.000000"
 preserveAspectRatio="xMidYMid meet">
<metadata>
Created by potrace 1.15, written by Peter Selinger 2001-2017
</metadata>
<g transform="translate(0.000000,660.000000) scale(0.100000,-0.100000)"
fill="#000000" stroke="none">
<path d="M3645 6594 c-352 -17 -614 -37 -942 -70 -70 -8 -74 -19 -10 -28 66
-10 156 -57 217 -114 l56 -50 324 33 c775 80 1262 99 1915 75 415 -16 813 -47
1172 -90 276 -34 284 -22 23 34 -454 97 -835 147 -1464 192 -196 14 -1115 27
-1291 18z"/>
<path d="M2265 6466 c-374 -81 -760 -281 -1110 -575 -138 -115 -321 -297 -384
-381 -73 -98 -130 -153 -186 -180 -25 -12 -125 -37 -227 -56 -212 -39 -196
-29 -271 -180 -63 -125 -80 -173 -64 -179 7 -3 229 -51 495 -108 l482 -103 14
21 c8 12 44 82 81 156 54 108 81 148 136 206 37 40 74 85 82 100 8 15 27 89
42 163 53 262 141 548 206 671 58 109 123 150 359 228 551 181 771 134 960
-205 22 -39 62 -127 89 -195 78 -198 262 -746 280 -835 l16 -81 100 -2 c55 -1
115 -4 133 -7 17 -4 32 -2 32 3 0 5 -42 117 -93 249 -52 131 -133 343 -182
469 -150 394 -274 636 -368 720 -97 88 -178 114 -377 120 -117 5 -150 2 -245
-19z m-895 -508 c0 -17 -137 -439 -171 -530 -17 -42 -36 -81 -43 -87 -9 -8
-55 -7 -166 4 -84 9 -157 18 -163 22 -16 10 0 98 29 160 45 95 213 254 414
391 76 52 100 62 100 40z"/>
<path d="M1249 5868 c-241 -168 -376 -318 -396 -442 -6 -39 -3 -40 122 -51 39
-3 91 -8 117 -11 47 -6 47 -6 63 33 25 56 176 515 172 519 -2 2 -37 -19 -78
-48z"/>
<path d="M4245 6413 c-216 -8 -716 -49 -1080 -89 -207 -22 -192 -13 -145 -89
93 -153 147 -276 349 -805 77 -201 153 -396 169 -435 l29 -70 99 2 c54 1 146
11 204 23 58 11 188 32 290 45 231 32 299 50 436 119 l109 54 360 51 c943 133
984 136 2093 136 904 0 923 0 900 19 -32 26 -504 362 -678 483 -337 234 -652
415 -753 433 -182 33 -933 103 -1282 120 -178 9 -888 11 -1100 3z"/>
<path d="M2280 6315 c-98 -17 -169 -36 -338 -90 -246 -79 -296 -110 -356 -219
-62 -111 -147 -392 -211 -698 -25 -119 -26 -128 -10 -151 30 -47 118 -67 360
-83 94 -6 99 -5 84 11 -14 14 -44 18 -160 24 -148 8 -177 15 -203 53 -34 48
-15 207 58 493 70 275 80 302 147 391 36 50 42 53 146 87 229 74 457 113 623
104 150 -7 205 -30 295 -121 96 -97 118 -144 262 -546 30 -85 78 -225 105
-310 100 -316 103 -323 122 -326 45 -7 31 58 -99 445 -128 380 -154 450 -215
580 -108 226 -208 323 -369 357 -79 16 -141 16 -241 -1z"/>
<path d="M2190 6199 c-184 -33 -408 -92 -471 -125 -35 -18 -94 -106 -119 -179
-27 -78 -104 -386 -125 -500 -10 -49 -17 -116 -17 -148 0 -95 9 -100 218 -112
l102 -6 -11 39 c-13 50 6 147 40 200 64 99 221 147 513 159 224 9 369 -17 452
-81 40 -30 48 -32 48 -12 0 7 18 70 40 139 l41 126 -37 98 c-79 213 -162 326
-276 379 -59 26 -73 28 -203 30 -77 2 -165 -2 -195 -7z"/>
<path d="M2877 5531 c-21 -67 -39 -149 -41 -183 -2 -36 -14 -89 -28 -123 -35
-88 -40 -89 -368 -81 -146 3 -346 13 -445 21 -99 8 -185 15 -192 15 -19 0 -4
-34 35 -78 l37 -42 455 -44 c697 -69 810 -79 815 -74 9 8 -167 561 -212 667
l-19 44 -37 -122z"/>
<path d="M7801 5587 c41 -29 96 -68 123 -86 l49 -34 -6 48 c-6 59 -17 68 -120
100 -121 39 -131 33 -46 -28z"/>
<path d="M677 5520 c-83 -14 -289 -81 -350 -113 -57 -30 -117 -89 -117 -114 0
-17 -8 -17 160 13 153 27 193 40 252 80 42 29 136 145 116 143 -7 -1 -35 -5
-61 -9z"/>
<path d="M2170 5490 c-238 -30 -343 -91 -371 -214 -7 -31 -10 -58 -8 -60 25
-24 871 -60 946 -40 16 4 29 24 48 73 39 104 34 130 -38 180 -75 51 -133 63
-332 66 -99 2 -209 0 -245 -5z"/>
<path d="M6665 5333 c-370 -5 -682 -26 -1075 -73 -191 -22 -743 -100 -748
-105 -2 -2 18 -6 45 -9 1043 -136 1482 -212 2098 -367 852 -214 1476 -448
2242 -841 l232 -119 88 35 c170 68 424 131 829 205 421 78 783 130 1087 156
197 17 630 20 692 6 22 -6 41 -8 43 -6 13 13 -301 192 -593 338 -223 112 -343
160 -635 255 -326 107 -503 155 -870 236 -445 99 -616 132 -790 151 -80 10
-316 39 -525 67 -360 47 -398 50 -710 58 -357 9 -1152 16 -1410 13z m3995
-443 c129 -39 256 -81 282 -92 47 -20 60 -39 36 -55 -7 -4 -132 -6 -278 -5
-262 3 -521 -10 -860 -44 -328 -32 -691 -75 -830 -99 -393 -68 -406 -70 -514
-57 -119 13 -394 82 -591 147 -138 46 -165 58 -152 71 9 9 482 87 717 118 531
71 953 95 1545 91 l410 -3 235 -72z"/>
<path d="M9625 4939 c-137 -4 -313 -12 -390 -18 -337 -26 -535 -45 -528 -51 5
-4 22 -12 38 -18 17 -5 140 -51 275 -101 l245 -91 260 30 c294 33 558 56 753
66 73 4 129 10 125 14 -10 8 -516 181 -523 179 -3 -1 -117 -6 -255 -10z"/>
<path d="M10265 4857 l250 -84 213 -7 c116 -3 212 -4 212 -1 0 9 -41 22 -285
97 l-230 70 -205 5 -205 4 250 -84z"/>
<path d="M8410 4839 c-144 -21 -560 -89 -575 -93 -17 -5 232 -84 420 -132 166
-44 190 -47 305 -48 103 -1 163 6 340 37 118 21 230 41 249 45 32 7 8 17 -245
110 -312 114 -292 111 -494 81z"/>
<path d="M1254 5072 c-59 -63 -84 -103 -143 -220 -39 -79 -69 -147 -66 -152
10 -17 41 -11 61 11 15 17 26 20 58 14 37 -5 43 -3 71 30 60 71 144 54 131
-26 -5 -29 -1 -46 16 -73 13 -19 30 -37 38 -40 13 -4 424 -92 1339 -286 106
-23 194 -40 196 -38 1 2 32 89 70 193 37 105 87 237 111 293 24 57 44 107 44
112 0 4 -15 10 -32 14 -35 7 -811 84 -1367 136 -285 26 -330 33 -378 54 -29
14 -56 32 -59 41 -3 8 -9 15 -13 14 -3 0 -38 -35 -77 -77z"/>
<path d="M4635 5102 c-90 -44 -90 -44 45 -57 138 -13 584 -67 760 -91 765
-105 1339 -254 2035 -527 306 -121 620 -261 1140 -510 296 -142 361 -176 363
-194 4 -30 -19 -40 -119 -52 -116 -15 -625 -31 -976 -31 -161 0 -293 -2 -293
-4 0 -3 12 -32 26 -65 l27 -61 406 0 c659 0 991 22 1095 71 25 11 81 52 123
91 43 38 98 84 121 101 l44 32 -324 160 c-511 254 -828 388 -1238 525 -878
294 -1637 456 -2855 610 -132 16 -254 32 -270 35 -22 4 -53 -6 -110 -33z"/>
<path d="M4413 5010 c-35 -10 -123 -26 -195 -35 -145 -18 -301 -42 -333 -52
-11 -3 122 -30 295 -59 559 -93 911 -172 1335 -299 648 -195 1176 -421 1857
-794 l187 -102 314 1 c544 1 1053 22 1075 45 9 9 -558 283 -918 445 -921 413
-1572 613 -2408 740 -297 45 -1034 131 -1105 129 -23 -1 -70 -9 -104 -19z"/>
<path d="M3720 4840 c1490 -250 2093 -439 2920 -914 96 -55 239 -137 317 -182
78 -44 159 -84 180 -87 45 -8 188 -7 293 2 l75 6 -140 77 c-644 352 -1069 539
-1665 735 -501 164 -944 266 -1640 379 -206 33 -245 37 -455 39 l-230 2 345
-57z"/>
<path d="M3 4872 c-18 -44 22 -486 67 -752 11 -63 24 -167 29 -230 9 -106 34
-202 63 -235 4 -5 5 110 2 255 -5 221 -4 277 10 339 25 118 80 191 144 191 49
0 153 -104 240 -239 58 -91 230 -492 364 -848 15 -42 28 -58 61 -78 82 -48
109 -85 126 -180 l17 -85 142 -64 c78 -35 142 -61 142 -57 0 3 -16 32 -35 64
-91 152 -130 237 -187 416 -23 75 -38 105 -68 136 -55 57 -90 140 -159 375
-67 229 -104 390 -152 655 -17 99 -33 182 -35 184 -2 2 -175 40 -384 85 -315
68 -383 80 -387 68z"/>
<path d="M3180 4808 c-40 -87 -190 -491 -190 -514 0 -8 27 -19 73 -28 39 -9
241 -52 447 -96 206 -44 381 -82 389 -85 10 -4 11 -9 4 -16 -6 -6 -113 13
-319 56 -244 52 -592 125 -598 125 -6 0 16 -867 24 -978 20 -278 24 -398 11
-432 -6 -18 -9 -35 -7 -38 3 -2 135 -53 293 -112 l288 -107 6 201 c14 450 108
716 341 962 106 111 221 172 385 204 93 18 263 9 343 -20 98 -34 306 -143 385
-202 158 -117 356 -349 534 -625 40 -62 77 -113 81 -113 5 0 69 -9 142 -19 73
-11 221 -29 328 -41 107 -11 209 -23 227 -26 31 -6 32 -4 77 83 80 153 205
302 381 452 106 91 166 133 236 166 l52 24 -34 14 c-19 8 -137 75 -264 149
-329 192 -425 245 -655 356 -239 116 -379 173 -620 253 -381 126 -800 227
-1410 339 -218 40 -882 150 -905 150 -3 0 -24 -37 -45 -82z"/>
<path d="M1262 4743 l-27 -27 30 -12 c56 -24 74 -12 75 49 0 27 -47 21 -78
-10z"/>
<path d="M810 4705 c0 -17 57 -324 80 -435 50 -234 153 -587 195 -670 13 -25
35 -56 50 -70 l28 -25 -6 110 c-3 78 -18 170 -50 315 -54 244 -72 360 -92 579
-8 90 -16 165 -17 166 -6 3 -164 35 -176 35 -6 0 -12 -2 -12 -5z"/>
<path d="M1030 4658 c0 -27 31 -336 40 -401 12 -82 33 -184 66 -327 36 -153
54 -274 54 -365 l0 -81 128 -48 c762 -292 1659 -622 1666 -615 17 16 18 163 2
374 -8 116 -19 398 -22 627 -4 229 -10 422 -14 428 -7 11 -37 18 -943 211
l-609 129 -29 -23 c-16 -12 -32 -34 -35 -49 -8 -36 -40 -68 -67 -68 -38 0 -65
28 -83 85 -15 46 -22 55 -46 60 -22 5 -51 33 -62 61 -1 1 -11 5 -23 8 -16 5
-23 3 -23 -6z"/>
<path d="M1205 4559 c16 -54 31 -74 56 -77 19 -2 28 3 37 23 18 39 16 43 -29
55 -22 6 -47 14 -56 17 -12 5 -14 1 -8 -18z"/>
<path d="M267 4382 c-53 -55 -70 -121 -73 -282 l-3 -145 14 64 c24 102 62 177
118 227 28 25 63 48 79 51 16 3 30 9 33 13 9 14 -93 100 -118 100 -13 0 -36
-13 -50 -28z"/>
<path d="M390 4263 c-45 -30 -92 -78 -110 -113 -75 -148 -112 -589 -75 -885
35 -275 56 -373 127 -595 66 -205 174 -378 267 -427 36 -19 60 -23 125 -23 70
0 487 38 616 56 110 16 173 74 196 183 15 69 22 61 -160 161 -225 123 -254
159 -275 340 -25 211 -33 228 -136 293 -39 24 -44 32 -129 248 -195 494 -277
672 -341 742 -38 41 -66 46 -105 20z m82 -218 c167 -114 310 -657 295 -1120
-7 -198 -24 -295 -69 -385 -134 -265 -352 46 -443 630 -9 58 -19 195 -22 305
-7 304 26 475 107 558 45 45 79 48 132 12z"/>
<path d="M358 4010 c-19 -19 -28 -37 -25 -48 21 -66 138 -367 145 -374 5 -5
12 27 15 79 4 48 16 125 27 171 l20 83 -26 39 c-28 42 -80 80 -108 80 -10 0
-31 -14 -48 -30z"/>
<path d="M292 3878 c-9 -33 -8 -47 4 -67 7 -14 41 -104 74 -200 56 -164 67
-190 73 -180 40 68 40 63 6 141 -18 40 -54 134 -80 208 -25 74 -51 136 -56
137 -6 2 -15 -15 -21 -39z"/>
<path d="M551 3833 c-28 -103 -40 -300 -19 -321 26 -26 38 -13 38 41 0 28 7
95 14 147 14 88 13 98 -3 135 l-18 40 -12 -42z"/>
<path d="M264 3723 c-8 -52 1 -482 10 -491 3 -3 38 26 77 65 l71 70 -68 202
c-38 110 -72 201 -76 201 -4 0 -10 -21 -14 -47z"/>
<path d="M617 3690 c-4 -19 -10 -82 -14 -140 -5 -94 -3 -111 15 -153 l21 -47
35 17 c28 13 34 21 31 37 -3 12 -14 62 -24 111 -11 50 -28 117 -39 150 l-18
60 -7 -35z"/>
<path d="M347 3249 l-64 -65 8 -50 c4 -27 8 -56 9 -64 1 -34 15 -41 51 -26 19
8 51 21 71 29 l37 15 -15 54 c-7 29 -14 71 -15 93 0 22 -4 49 -9 60 -7 18 -14
14 -73 -46z"/>
<path d="M657 3283 c-10 -9 -8 -88 2 -115 5 -13 25 -41 45 -63 l36 -40 -6 95
c-4 52 -11 103 -16 113 -9 17 -48 24 -61 10z"/>
<path d="M637 3113 c-2 -4 -10 -25 -17 -46 -12 -38 -11 -40 35 -108 26 -38 56
-74 66 -80 18 -9 19 -5 19 57 0 60 -3 71 -35 114 -40 55 -61 74 -68 63z"/>
<path d="M386 3026 c-33 -12 -61 -27 -63 -33 -11 -32 62 -255 124 -378 59
-119 59 -121 42 200 -10 189 -18 236 -38 234 -3 0 -33 -10 -65 -23z"/>
<path d="M514 2987 c-3 -13 -1 -92 5 -176 6 -84 11 -187 11 -230 0 -69 9 -101
30 -101 3 0 5 119 5 265 l0 265 -22 0 c-15 0 -25 -8 -29 -23z"/>
<path d="M597 2933 c-9 -50 -9 -313 -1 -392 8 -75 25 -78 66 -11 30 49 55 136
67 233 l7 62 -41 40 c-23 22 -53 55 -67 73 l-25 34 -6 -39z"/>
<path d="M11755 4204 c-644 -23 -1892 -238 -2214 -382 l-43 -20 86 -47 87 -47
182 56 c459 141 662 186 1197 270 225 35 357 53 565 78 135 16 599 16 670 1
27 -6 51 -10 53 -8 2 1 -16 16 -39 33 -26 19 -67 37 -108 46 -70 15 -285 25
-436 20z"/>
<path d="M11735 4093 c-339 -29 -977 -127 -1295 -198 -175 -39 -380 -96 -616
-170 -141 -45 -147 -48 -247 -127 -206 -163 -337 -316 -562 -658 -190 -288
-196 -298 -182 -307 6 -4 50 -9 97 -11 l85 -4 87 154 c109 193 218 349 350
502 173 201 319 302 518 359 134 39 580 143 776 182 472 94 1079 165 1411 165
114 0 134 -3 173 -22 54 -28 81 -64 91 -120 6 -37 7 -32 8 33 1 85 -21 174
-47 188 -45 24 -225 41 -413 39 -107 -1 -212 -3 -234 -5z"/>
<path d="M11930 3943 c-392 -25 -874 -91 -1270 -174 -143 -30 -631 -147 -636
-152 -14 -14 -228 -866 -220 -875 15 -14 799 113 1256 204 323 64 785 175 802
192 13 13 277 812 270 815 -4 2 -95 -3 -202 -10z"/>
<path d="M12172 3944 c-15 -29 -264 -786 -260 -790 6 -5 349 103 359 113 10
10 82 261 104 366 8 38 15 106 15 152 0 75 -3 87 -25 114 -27 32 -62 46 -137
56 -39 6 -48 4 -56 -11z"/>
<path d="M4365 3929 c-162 -24 -295 -90 -400 -200 -224 -235 -321 -500 -331
-909 l-5 -185 47 84 c35 63 55 118 84 230 76 293 137 442 225 553 55 68 155
138 245 169 97 34 278 38 391 10 217 -54 407 -198 662 -503 l97 -115 117 -31
c64 -17 118 -30 120 -29 5 6 -166 257 -246 362 -227 298 -529 507 -809 561
-81 15 -108 16 -197 3z"/>
<path d="M9395 3743 c-27 -20 -77 -61 -110 -93 -69 -65 -131 -103 -195 -119
-61 -15 -191 -31 -250 -31 l-48 0 -263 -362 c-144 -200 -266 -368 -270 -374
-6 -7 69 -27 244 -63 138 -28 260 -51 269 -51 11 0 71 81 174 238 86 130 195
289 242 352 99 132 250 287 370 379 45 35 82 66 82 70 -1 8 -166 91 -182 91
-7 0 -35 -17 -63 -37z"/>
<path d="M4323 3665 c-213 -39 -351 -172 -450 -435 -28 -73 -95 -311 -90 -317
2 -2 20 21 40 50 141 214 387 367 677 423 132 25 313 15 528 -30 34 -7 62 -9
62 -5 0 5 -39 43 -87 84 -158 138 -303 211 -468 235 -88 12 -122 11 -212 -5z"/>
<path d="M7264 3620 c-124 -11 -185 -30 -274 -89 -206 -135 -431 -377 -526
-563 -39 -76 -44 -71 78 -83 l66 -7 22 43 c66 130 273 401 355 463 94 72 203
100 445 117 91 6 167 13 169 15 2 2 -9 28 -23 59 l-27 55 -97 -1 c-53 -1 -138
-5 -188 -9z"/>
<path d="M9909 3585 c-68 -25 -164 -77 -219 -118 -120 -90 -279 -270 -423
-478 -72 -104 -200 -329 -193 -337 7 -6 675 74 683 82 3 3 31 110 63 238 50
201 141 556 156 611 6 21 -15 22 -67 2z"/>
<path d="M7940 3479 c-580 -6 -676 -12 -790 -45 -93 -27 -184 -85 -210 -134
-9 -17 5 -18 258 -17 261 2 267 2 267 -18 0 -19 -8 -20 -292 -25 -176 -3 -295
-9 -301 -15 -63 -74 -152 -197 -152 -212 0 -4 164 -7 365 -5 330 2 366 1 372
-14 3 -9 0 -20 -8 -25 -8 -5 -183 -9 -389 -9 l-376 0 -26 -54 c-40 -81 -45
-119 -18 -146 22 -22 24 -22 259 -16 130 3 480 9 779 12 l542 7 144 196 c223
306 376 519 376 525 0 4 -48 5 -107 4 -60 -1 -371 -5 -693 -9z m69 -44 c17 -8
43 -34 59 -57 25 -39 27 -48 26 -152 0 -167 -37 -271 -119 -344 -100 -88 -280
-81 -343 13 -36 52 -73 151 -79 210 -10 99 60 271 127 309 75 44 262 56 329
21z"/>
<path d="M7781 3419 c-103 -17 -141 -57 -182 -193 -27 -86 -21 -157 19 -247
45 -97 89 -129 180 -129 77 0 123 18 173 69 62 61 90 146 96 291 4 96 2 108
-19 144 -42 72 -116 90 -267 65z m-7 -79 c77 -29 77 -233 0 -302 -77 -68 -156
-13 -156 110 0 72 24 133 68 172 37 32 49 35 88 20z"/>
<path d="M12334 3363 c-16 -58 -34 -112 -40 -118 -13 -12 -335 -114 -539 -169
-580 -157 -1596 -336 -2455 -431 -139 -15 -246 -32 -262 -41 -48 -26 -134 -16
-477 57 l-336 70 -708 -7 c-389 -4 -706 -8 -704 -10 3 -3 318 -74 437 -98 216
-44 462 -78 725 -101 275 -24 1125 -67 1185 -60 30 3 197 26 370 51 1129 160
1875 288 2265 389 183 47 278 78 445 145 299 120 350 149 350 204 0 36 -41
106 -86 148 -24 22 -121 78 -136 78 -3 0 -18 -48 -34 -107z"/>
<path d="M1193 3443 c2 -5 21 -60 42 -123 42 -130 80 -210 168 -357 l61 -102
819 -356 c450 -196 821 -354 824 -352 2 3 -15 43 -38 88 -41 82 -43 89 -71
314 -16 127 -30 231 -31 231 -1 1 -90 34 -197 74 -420 156 -1107 413 -1333
499 -132 50 -241 91 -244 91 -2 0 -2 -3 0 -7z"/>
<path d="M4493 3356 c-150 -29 -289 -88 -421 -179 -190 -131 -358 -391 -456
-707 -87 -282 -104 -444 -71 -705 36 -292 91 -481 206 -706 204 -401 498 -699
823 -836 223 -94 448 -139 661 -130 244 9 429 83 718 285 l108 75 -7 60 c-7
56 -5 64 36 147 l43 88 -44 206 c-24 113 -46 202 -49 198 -4 -4 -12 -27 -19
-50 -21 -73 -78 -191 -135 -276 -150 -225 -383 -380 -640 -425 -86 -16 -260
-13 -361 4 -260 46 -555 228 -745 459 -376 461 -473 1085 -244 1571 52 111
110 193 203 288 96 98 204 173 315 217 143 57 187 65 371 65 150 0 179 -3 245
-23 91 -28 199 -82 384 -191 76 -44 140 -81 143 -81 8 0 -59 113 -153 255 -50
77 -133 186 -182 241 l-90 101 -139 28 c-168 33 -387 42 -500 21z"/>
<path d="M12617 3260 c7 -61 -18 -90 -116 -139 -101 -51 -352 -151 -473 -190
-396 -126 -1127 -258 -2583 -467 -305 -44 -342 -45 -886 -14 -682 37 -944 65
-1304 136 -204 40 -577 124 -608 136 -36 14 -60 60 -52 98 6 28 5 28 -47 34
-29 3 -71 7 -92 8 l-40 3 -19 -60 c-34 -111 -9 -179 86 -234 204 -116 888
-239 1792 -323 184 -17 871 -17 1060 0 872 79 1630 200 2275 362 305 77 549
157 927 306 120 47 228 90 240 95 22 8 22 10 8 50 -16 43 -77 135 -138 204
l-35 40 5 -45z"/>
<path d="M5420 3000 c6 -11 37 -62 69 -113 32 -50 83 -137 114 -192 157 -279
286 -691 438 -1395 67 -312 119 -544 123 -548 2 -1 148 -28 324 -59 l320 -57
64 42 c202 131 319 145 1043 122 328 -11 453 -11 627 -1 259 15 685 55 695 65
11 10 9 968 -1 1178 l-8 166 -297 -5 c-396 -8 -751 17 -1346 93 -503 64 -932
158 -1096 240 -130 65 -164 152 -116 293 l15 41 -32 5 c-17 3 -130 16 -251 30
-121 14 -263 32 -315 40 -52 8 -96 12 -98 10 -3 -2 23 -53 58 -112 82 -144
207 -402 259 -536 23 -59 69 -190 102 -292 33 -102 64 -185 69 -185 5 0 97
-16 206 -35 108 -19 366 -60 573 -91 207 -30 380 -59 385 -64 17 -16 -44 -159
-83 -194 -29 -26 -64 -24 -401 25 -603 86 -630 92 -663 148 -9 15 -25 68 -36
117 -20 91 -87 310 -135 442 -77 216 -221 519 -334 707 l-48 80 -104 27 c-131
34 -134 34 -120 8z m3111 -1368 c160 -45 259 -155 259 -288 0 -98 -83 -255
-174 -327 -62 -49 -210 -121 -291 -142 -146 -38 -270 -30 -417 26 -65 25 -86
40 -134 92 -80 86 -98 131 -91 225 4 51 14 91 32 127 31 64 121 160 190 204
47 30 192 81 288 101 66 14 263 4 338 -18z"/>
<path d="M8175 1615 c-33 -8 -87 -23 -120 -33 -58 -18 -60 -20 -55 -48 3 -16
5 -60 5 -99 0 -86 -35 -168 -98 -233 -44 -45 -86 -62 -155 -62 l-43 0 27 -51
c45 -81 116 -139 215 -174 75 -27 97 -30 199 -30 137 0 219 22 350 93 107 58
167 117 215 215 67 136 58 233 -31 321 -24 24 -63 54 -87 65 -97 47 -298 64
-422 36z"/>
<path d="M4677 2979 c-129 -13 -307 -72 -307 -102 0 -21 192 -300 296 -428 51
-64 123 -144 159 -177 90 -85 111 -84 195 1 34 34 110 122 169 196 58 73 134
168 169 210 72 88 77 75 -55 147 -115 63 -256 123 -327 139 -80 17 -203 23
-299 14z"/>
<path d="M12635 2923 c-434 -173 -662 -249 -1010 -338 -590 -151 -1378 -280
-2100 -346 -132 -12 -246 -23 -253 -25 -11 -3 -12 -43 -5 -211 4 -115 8 -420
8 -679 l0 -472 50 -6 c28 -3 88 -6 135 -5 72 0 81 2 60 12 -88 40 -137 114
-145 218 -11 133 -25 753 -17 761 4 4 126 23 271 42 923 125 1951 353 2527
562 216 78 573 234 578 252 13 43 67 294 64 296 -2 2 -75 -26 -163 -61z"/>
<path d="M1136 2913 c8 -67 30 -117 71 -155 53 -51 358 -211 713 -375 590
-274 1602 -734 1606 -731 2 2 -1 35 -6 73 -5 39 -12 104 -15 145 l-6 76 -112
48 c-62 27 -592 257 -1179 512 -587 255 -1070 464 -1073 464 -3 0 -2 -26 1
-57z"/>
<path d="M4228 2802 c-54 -41 -63 -52 -61 -78 4 -50 87 -203 201 -366 61 -87
128 -196 151 -243 55 -112 70 -116 148 -45 31 29 72 59 90 68 20 9 33 23 33
34 0 10 -46 85 -103 166 -57 81 -150 214 -206 296 -115 165 -157 216 -176 216
-8 0 -42 -22 -77 -48z"/>
<path d="M3000 2763 c1 -4 13 -105 29 -223 l28 -215 51 -101 50 -100 154 -66
c84 -37 160 -70 169 -73 15 -5 18 6 24 87 8 117 38 265 75 382 16 49 28 91 27
93 -3 3 -553 208 -584 217 -13 4 -23 4 -23 -1z"/>
<path d="M5464 2700 c-38 -15 -424 -501 -424 -534 0 -3 24 -17 53 -30 63 -30
126 -82 178 -148 l38 -49 31 61 c17 33 79 140 139 238 59 97 122 205 140 238
l33 62 -20 39 c-22 43 -114 133 -134 132 -7 0 -22 -4 -34 -9z"/>
<path d="M4073 2658 c-17 -18 -49 -60 -71 -93 -150 -225 -223 -529 -193 -809
5 -54 12 -101 15 -104 10 -10 150 20 255 55 126 42 293 114 356 154 l48 30 -5
72 c-6 89 -34 152 -153 348 -124 203 -166 277 -186 329 -9 24 -21 46 -26 47
-5 2 -23 -11 -40 -29z"/>
<path d="M12570 2573 c-311 -137 -546 -221 -875 -312 -649 -181 -1515 -351
-2205 -434 l-105 -12 3 -285 c2 -157 8 -339 12 -404 11 -146 34 -194 115 -235
46 -24 59 -26 185 -25 192 0 366 34 870 166 333 87 487 133 720 215 237 83
624 236 763 301 248 117 403 300 521 615 39 105 150 467 144 471 -1 1 -68 -26
-148 -61z"/>
<path d="M5623 2382 c-72 -124 -259 -473 -268 -500 -4 -13 -1 -53 6 -89 13
-65 14 -66 94 -133 97 -81 154 -120 377 -255 95 -58 174 -101 176 -96 10 29
-178 759 -239 929 -36 101 -82 217 -88 224 -4 4 -30 -32 -58 -80z"/>
<path d="M12400 1784 c-19 -25 -61 -70 -94 -100 -32 -30 -57 -56 -55 -58 2 -2
15 -9 29 -16 14 -7 66 -44 116 -81 49 -38 95 -69 102 -69 14 0 30 56 38 131 5
40 2 71 -10 106 -16 48 -70 133 -84 133 -4 -1 -23 -21 -42 -46z"/>
<path d="M6180 1788 c0 -27 30 -139 42 -157 22 -35 80 -50 353 -90 613 -90
635 -93 661 -76 25 16 47 53 69 116 16 45 24 41 -108 60 -75 10 -80 10 -93
-10 -38 -53 -83 -83 -126 -83 -36 0 -687 100 -698 107 -15 9 -40 74 -40 103 0
18 -6 32 -16 36 -25 10 -44 7 -44 -6z"/>
<path d="M6266 1775 c-4 -10 17 -81 27 -91 4 -5 198 -37 525 -88 151 -24 166
-25 195 -11 29 14 74 62 65 69 -1 2 -140 24 -308 50 -168 26 -349 55 -402 65
-69 12 -99 14 -102 6z"/>
<path d="M4290 1734 c-252 -71 -440 -135 -450 -154 -6 -12 -4 -39 8 -81 28
-99 52 -142 87 -151 77 -20 675 83 675 117 0 3 -11 27 -24 54 -29 57 -56 155
-56 204 0 30 -4 37 -31 46 -41 14 -28 16 -209 -35z"/>
<path d="M5364 1613 c-15 -71 -39 -128 -75 -182 -21 -32 -39 -66 -39 -75 0
-11 100 -66 330 -181 181 -91 338 -165 349 -165 10 0 23 6 29 13 8 10 43 110
66 193 5 18 -3 26 -56 54 -117 62 -283 163 -433 264 -82 56 -153 102 -157 104
-4 2 -10 -9 -14 -25z"/>
<path d="M12129 1554 c-219 -112 -825 -343 -1164 -444 -166 -49 -553 -151
-743 -196 -299 -69 -666 -113 -836 -98 -114 9 -230 8 -294 -3 l-43 -8 93 -61
c51 -34 159 -110 241 -169 l147 -107 93 31 c50 17 319 94 597 171 927 259
1274 374 1925 640 110 45 224 90 253 99 29 9 54 20 54 26 2 14 -168 140 -205
152 -29 9 -42 5 -118 -33z"/>
<path d="M12550 1485 c0 -35 -35 -68 -95 -90 -28 -10 -205 -80 -395 -155 -660
-263 -932 -352 -1860 -610 -239 -67 -492 -139 -561 -160 -137 -43 -166 -47
-604 -75 -947 -60 -1586 -60 -2050 0 -151 19 -434 65 -679 110 -105 19 -197
35 -206 35 -16 0 -15 -10 4 -122 l21 -122 190 -42 c105 -23 370 -88 590 -145
l400 -104 425 1 c516 2 786 19 1567 102 178 19 267 33 279 43 10 7 36 43 60
79 69 107 79 112 298 165 212 50 496 133 1016 296 645 202 1031 342 1332 482
l98 46 30 -45 c17 -24 39 -44 49 -44 47 0 130 249 114 344 -6 41 -23 49 -23
11z"/>
<path d="M4345 1349 c-33 -5 -138 -16 -233 -23 -96 -8 -177 -18 -182 -22 -12
-12 86 -205 166 -328 77 -118 220 -264 337 -344 88 -60 220 -129 266 -138 l31
-6 0 51 c0 28 -7 124 -16 213 -8 90 -19 237 -22 328 -6 142 -11 171 -30 211
-12 26 -33 51 -48 57 -29 14 -181 14 -269 1z"/>
<path d="M4765 1266 c-17 -25 -17 -49 -12 -284 7 -284 22 -479 40 -501 22 -26
91 -51 144 -51 l52 0 5 43 c4 23 15 137 26 252 11 116 28 272 37 348 12 98 14
143 7 155 -16 25 -108 53 -200 59 -80 6 -82 5 -99 -21z"/>
<path d="M5163 1223 c-26 -25 -32 -40 -46 -133 -30 -195 -68 -544 -65 -605 l3
-60 90 1 c50 1 119 9 155 18 142 38 346 155 448 257 60 60 174 226 170 247 -2
7 -93 53 -203 101 -110 49 -231 103 -270 121 -88 40 -202 80 -231 80 -12 0
-35 -12 -51 -27z"/>
<path d="M8830 790 c-253 -26 -591 -32 -1000 -17 -665 23 -737 12 -996 -153
-19 -12 -63 -6 -349 44 -180 31 -328 56 -329 54 -1 -2 -16 -33 -33 -70 -29
-60 -30 -67 -15 -72 55 -17 595 -109 798 -136 394 -53 888 -72 1374 -51 316
13 1121 59 1169 67 l33 5 -43 31 c-24 17 -93 68 -154 113 -60 44 -151 107
-200 138 -100 62 -98 62 -255 47z"/>
</g>
</svg>
